<svg xmlns="http://www.w3.org/2000/svg" height="24" viewBox="0 96 960 960" width="24"><path d="M320 776q17 0 28.5-11.5T360 736q0-17-11.5-28.5T320 696q-17 0-28.5 11.5T280 736q0 17 11.5 28.5T320 776Zm0-160q17 0 28.5-11.5T360 576q0-17-11.5-28.5T320 536q-17 0-28.5 11.5T280 576q0 17 11.5 28.5T320 616Zm0-160q17 0 28.5-11.5T360 416q0-17-11.5-28.5T320 376q-17 0-28.5 11.5T280 416q0 17 11.5 28.5T320 456Zm120 320h240v-80H440v80Zm0-160h240v-80H440v80Zm0-160h240v-80H440v80ZM200 936q-33 0-56.5-23.5T120 856V296q0-33 23.5-56.5T200 216h560q33 0 56.5 23.5T840 296v560q0 33-23.5 56.5T760 936H200Zm0-80h560V296H200v560Zm0-560v560-560Z"/></svg>