<svg xmlns="http://www.w3.org/2000/svg" height="20" viewBox="0 96 960 960" width="20"><path d="M216 960q-29.7 0-50.85-21.5Q144 917 144 888V360q0-29 21.15-50.5T216 288h72v-96h72v96h240v-96h72v96h72q29.7 0 50.85 21.5Q816 331 816 360v528q0 29-21.15 50.5T744 960H216Zm0-72h528V528H216v360Zm0-432h528v-96H216v96Zm0 0v-96 96Zm264.211 216Q465 672 454.5 661.711q-10.5-10.29-10.5-25.5Q444 621 454.289 610.5q10.29-10.5 25.5-10.5Q495 600 505.5 610.289q10.5 10.29 10.5 25.5Q516 651 505.711 661.5q-10.29 10.5-25.5 10.5Zm-156 0Q309 672 298.5 661.711q-10.5-10.29-10.5-25.5Q288 621 298.289 610.5q10.29-10.5 25.5-10.5Q339 600 349.5 610.289q10.5 10.29 10.5 25.5Q360 651 349.711 661.5q-10.29 10.5-25.5 10.5Zm312 0Q621 672 610.5 661.711q-10.5-10.29-10.5-25.5Q600 621 610.289 610.5q10.29-10.5 25.5-10.5Q651 600 661.5 610.289q10.5 10.29 10.5 25.5Q672 651 661.711 661.5q-10.29 10.5-25.5 10.5Zm-156 144Q465 816 454.5 805.711q-10.5-10.29-10.5-25.5Q444 765 454.289 754.5q10.29-10.5 25.5-10.5Q495 744 505.5 754.289q10.5 10.29 10.5 25.5Q516 795 505.711 805.5q-10.29 10.5-25.5 10.5Zm-156 0Q309 816 298.5 805.711q-10.5-10.29-10.5-25.5Q288 765 298.289 754.5q10.29-10.5 25.5-10.5Q339 744 349.5 754.289q10.5 10.29 10.5 25.5Q360 795 349.711 805.5q-10.29 10.5-25.5 10.5Zm312 0Q621 816 610.5 805.711q-10.5-10.29-10.5-25.5Q600 765 610.289 754.5q10.29-10.5 25.5-10.5Q651 744 661.5 754.289q10.5 10.29 10.5 25.5Q672 795 661.711 805.5q-10.29 10.5-25.5 10.5Z"/></svg>