<svg xmlns="http://www.w3.org/2000/svg" height="40" viewBox="0 96 960 960" width="40"><path d="M186.666 976q-27 0-46.833-19.833T120 909.334V309.333q0-27 19.833-46.833 19.833-19.834 46.833-19.834h56.667V176h70v66.666h333.334V176h70v66.666h56.667q27 0 46.833 19.834Q840 282.333 840 309.333v600.001q0 27-19.833 46.833T773.334 976H186.666Zm0-66.666h586.668V489.333H186.666v420.001Zm0-486.667h586.668V309.333H186.666v113.334Zm0 0V309.333v113.334ZM480 656q-17 0-28.5-11.5T440 616q0-17 11.5-28.5T480 576q17 0 28.5 11.5T520 616q0 17-11.5 28.5T480 656Zm-160 0q-17 0-28.5-11.5T280 616q0-17 11.5-28.5T320 576q17 0 28.5 11.5T360 616q0 17-11.5 28.5T320 656Zm320 0q-17 0-28.5-11.5T600 616q0-17 11.5-28.5T640 576q17 0 28.5 11.5T680 616q0 17-11.5 28.5T640 656ZM480 816q-17 0-28.5-11.5T440 776q0-17 11.5-28.5T480 736q17 0 28.5 11.5T520 776q0 17-11.5 28.5T480 816Zm-160 0q-17 0-28.5-11.5T280 776q0-17 11.5-28.5T320 736q17 0 28.5 11.5T360 776q0 17-11.5 28.5T320 816Zm320 0q-17 0-28.5-11.5T600 776q0-17 11.5-28.5T640 736q17 0 28.5 11.5T680 776q0 17-11.5 28.5T640 816Z"/></svg>