<svg xmlns="http://www.w3.org/2000/svg" height="40" viewBox="0 96 960 960" width="40"><path d="M160 856v-66.666h82.667V492q0-83.667 49.666-148.833Q342 278 422.667 260v-28.667q0-23.666 16.833-39.5Q456.333 176 480 176t40.5 15.833q16.833 15.834 16.833 39.5V260Q618 278 668 343.167 718 408.333 718 492v297.334h82V856H160Zm320-296.667ZM480 976q-32.333 0-56.167-23.5Q400 929 400 896h160q0 33-23.5 56.5T480 976ZM309.333 789.334h342.001V492q0-71.334-49.667-121.667t-121-50.333q-71.334 0-121.334 50.333t-50 121.667v297.334Z"/></svg>